<svg preserveAspectRatio="none" overflow="visible" style="display: block;" width="16" height="16" viewBox="0 0 16 16" fill="none" xmlns="http://www.w3.org/2000/svg">
<g id="SVG">
<path id="Vector" d="M2.66714 2H6.00286C6.37131 2 6.67 2.29848 6.67 2.66667V7.33333C6.67 7.70152 6.37131 8 6.00286 8H2.66714C2.29869 8 2 7.70152 2 7.33333V2.66667C2 2.29848 2.29869 2 2.66714 2Z" stroke="#2463EB" stroke-width="2" stroke-linecap="round" stroke-linejoin="round"/>
<path id="Vector_2" d="M9.99714 2H13.3329C13.7013 2 14 2.29818 14 2.666V4.664C14 5.03182 13.7013 5.33 13.3329 5.33H9.99714C9.62869 5.33 9.33 5.03182 9.33 4.664V2.666C9.33 2.29818 9.62869 2 9.99714 2Z" stroke="#2463EB" stroke-width="2" stroke-linecap="round" stroke-linejoin="round"/>
<path id="Vector_3" d="M9.99714 8H13.3329C13.7013 8 14 8.29848 14 8.66667V13.3333C14 13.7015 13.7013 14 13.3329 14H9.99714C9.62869 14 9.33 13.7015 9.33 13.3333V8.66667C9.33 8.29848 9.62869 8 9.99714 8Z" stroke="#2463EB" stroke-width="2" stroke-linecap="round" stroke-linejoin="round"/>
<path id="Vector_4" d="M2.66714 10.67H6.00286C6.37131 10.67 6.67 10.9682 6.67 11.336V13.334C6.67 13.7018 6.37131 14 6.00286 14H2.66714C2.29869 14 2 13.7018 2 13.334V11.336C2 10.9682 2.29869 10.67 2.66714 10.67Z" stroke="#2463EB" stroke-width="2" stroke-linecap="round" stroke-linejoin="round"/>
</g>
</svg>
